<svg width="149" height="149" viewBox="0 0 149 149" fill="none" xmlns="http://www.w3.org/2000/svg">
<circle cx="74.5" cy="74.5" r="72.5" stroke="#FF83A1" stroke-width="4"/>
<path fill-rule="evenodd" clip-rule="evenodd" d="M85.6195 65.3804C86.2379 65.9987 86.2379 67.0012 85.6195 67.6196L66.6195 86.6196C66.0012 87.2379 64.9987 87.2379 64.3804 86.6196C63.762 86.0012 63.762 84.9987 64.3804 84.3804L83.3804 65.3804C83.9987 64.7621 85.0012 64.7621 85.6195 65.3804Z" fill="#FF83A1"/>
<path fill-rule="evenodd" clip-rule="evenodd" d="M64.3804 65.3804C64.9987 64.7621 66.0012 64.7621 66.6195 65.3804L85.6195 84.3804C86.2379 84.9987 86.2379 86.0012 85.6195 86.6196C85.0012 87.2379 83.9987 87.2379 83.3804 86.6196L64.3804 67.6196C63.762 67.0012 63.762 65.9987 64.3804 65.3804Z" fill="#FF83A1"/>
</svg>
