<svg width="158" height="158" viewBox="0 0 158 158" fill="none" xmlns="http://www.w3.org/2000/svg">
<g filter="url(#filter0_d)">
<path d="M79 10C92.6469 10 105.987 14.0468 117.334 21.6286C128.681 29.2104 137.525 39.9867 142.748 52.5948C147.97 65.2029 149.337 79.0765 146.674 92.4612C144.012 105.846 137.44 118.141 127.79 127.79C118.141 137.44 105.846 144.012 92.4612 146.674C79.0765 149.337 65.2029 147.97 52.5948 142.748C39.9867 137.525 29.2104 128.681 21.6286 117.334C14.0468 105.987 10 92.6469 10 79H79V10Z" fill="#A4F1E7"/>
</g>
<circle cx="79" cy="79" r="65" fill="#ECFEFC"/>
<path d="M53.25 73.3105L53.4141 74.4355L53.6543 73.4219L55.3418 67.4688H56.291L57.9375 73.4219L58.1719 74.4531L58.3535 73.3047L59.6777 67.4688H60.8086L58.7402 76H57.7148L55.957 69.7832L55.8223 69.1328L55.6875 69.7832L53.8652 76H52.8398L50.7773 67.4688H51.9023L53.25 73.3105ZM65.6074 76C65.5449 75.875 65.4941 75.6523 65.4551 75.332C64.9512 75.8555 64.3496 76.1172 63.6504 76.1172C63.0254 76.1172 62.5117 75.9414 62.1094 75.5898C61.7109 75.2344 61.5117 74.7852 61.5117 74.2422C61.5117 73.582 61.7617 73.0703 62.2617 72.707C62.7656 72.3398 63.4727 72.1562 64.3828 72.1562H65.4375V71.6582C65.4375 71.2793 65.3242 70.9785 65.0977 70.7559C64.8711 70.5293 64.5371 70.416 64.0957 70.416C63.709 70.416 63.3848 70.5137 63.123 70.709C62.8613 70.9043 62.7305 71.1406 62.7305 71.418H61.6406C61.6406 71.1016 61.752 70.7969 61.9746 70.5039C62.2012 70.207 62.5059 69.9727 62.8887 69.8008C63.2754 69.6289 63.6992 69.543 64.1602 69.543C64.8906 69.543 65.4629 69.7266 65.877 70.0938C66.291 70.457 66.5059 70.959 66.5215 71.5996V74.5176C66.5215 75.0996 66.5957 75.5625 66.7441 75.9062V76H65.6074ZM63.8086 75.1738C64.1484 75.1738 64.4707 75.0859 64.7754 74.9102C65.0801 74.7344 65.3008 74.5059 65.4375 74.2246V72.9238H64.5879C63.2598 72.9238 62.5957 73.3125 62.5957 74.0898C62.5957 74.4297 62.709 74.6953 62.9355 74.8867C63.1621 75.0781 63.4531 75.1738 63.8086 75.1738ZM69.3984 76H68.3145V69.6602H69.3984V76ZM68.2266 67.9785C68.2266 67.8027 68.2793 67.6543 68.3848 67.5332C68.4941 67.4121 68.6543 67.3516 68.8652 67.3516C69.0762 67.3516 69.2363 67.4121 69.3457 67.5332C69.4551 67.6543 69.5098 67.8027 69.5098 67.9785C69.5098 68.1543 69.4551 68.3008 69.3457 68.418C69.2363 68.5352 69.0762 68.5938 68.8652 68.5938C68.6543 68.5938 68.4941 68.5352 68.3848 68.418C68.2793 68.3008 68.2266 68.1543 68.2266 67.9785ZM72.6094 68.125V69.6602H73.793V70.498H72.6094V74.4297C72.6094 74.6836 72.6621 74.875 72.7676 75.0039C72.873 75.1289 73.0527 75.1914 73.3066 75.1914C73.4316 75.1914 73.6035 75.168 73.8223 75.1211V76C73.5371 76.0781 73.2598 76.1172 72.9902 76.1172C72.5059 76.1172 72.1406 75.9707 71.8945 75.6777C71.6484 75.3848 71.5254 74.9688 71.5254 74.4297V70.498H70.3711V69.6602H71.5254V68.125H72.6094ZM76.2422 76H75.1582V69.6602H76.2422V76ZM75.0703 67.9785C75.0703 67.8027 75.123 67.6543 75.2285 67.5332C75.3379 67.4121 75.498 67.3516 75.709 67.3516C75.9199 67.3516 76.0801 67.4121 76.1895 67.5332C76.2988 67.6543 76.3535 67.8027 76.3535 67.9785C76.3535 68.1543 76.2988 68.3008 76.1895 68.418C76.0801 68.5352 75.9199 68.5938 75.709 68.5938C75.498 68.5938 75.3379 68.5352 75.2285 68.418C75.123 68.3008 75.0703 68.1543 75.0703 67.9785ZM79.0078 69.6602L79.043 70.457C79.5273 69.8477 80.1602 69.543 80.9414 69.543C82.2812 69.543 82.957 70.2988 82.9688 71.8105V76H81.8848V71.8047C81.8809 71.3477 81.7754 71.0098 81.5684 70.791C81.3652 70.5723 81.0469 70.4629 80.6133 70.4629C80.2617 70.4629 79.9531 70.5566 79.6875 70.7441C79.4219 70.9316 79.2148 71.1777 79.0664 71.4824V76H77.9824V69.6602H79.0078ZM84.3457 72.7773C84.3457 71.7891 84.5742 71.0039 85.0312 70.4219C85.4883 69.8359 86.0938 69.543 86.8477 69.543C87.6211 69.543 88.2246 69.8164 88.6582 70.3633L88.7109 69.6602H89.7012V75.8477C89.7012 76.668 89.457 77.3145 88.9688 77.7871C88.4844 78.2598 87.832 78.4961 87.0117 78.4961C86.5547 78.4961 86.1074 78.3984 85.6699 78.2031C85.2324 78.0078 84.8984 77.7402 84.668 77.4004L85.2305 76.75C85.6953 77.3242 86.2637 77.6113 86.9355 77.6113C87.4629 77.6113 87.873 77.4629 88.166 77.166C88.4629 76.8691 88.6113 76.4512 88.6113 75.9121V75.3672C88.1777 75.8672 87.5859 76.1172 86.8359 76.1172C86.0938 76.1172 85.4922 75.8184 85.0312 75.2207C84.5742 74.623 84.3457 73.8086 84.3457 72.7773ZM85.4355 72.9004C85.4355 73.6152 85.582 74.1777 85.875 74.5879C86.168 74.9941 86.5781 75.1973 87.1055 75.1973C87.7891 75.1973 88.291 74.8867 88.6113 74.2656V71.3711C88.2793 70.7656 87.7812 70.4629 87.1172 70.4629C86.5898 70.4629 86.1777 70.668 85.8809 71.0781C85.584 71.4883 85.4355 72.0957 85.4355 72.9004ZM94.8516 76V70.498H93.8496V69.6602H94.8516V69.0098C94.8516 68.3301 95.0332 67.8047 95.3965 67.4336C95.7598 67.0625 96.2734 66.877 96.9375 66.877C97.1875 66.877 97.4355 66.9102 97.6816 66.9766L97.623 67.8555C97.4395 67.8203 97.2441 67.8027 97.0371 67.8027C96.6855 67.8027 96.4141 67.9062 96.2227 68.1133C96.0312 68.3164 95.9355 68.6094 95.9355 68.9922V69.6602H97.2891V70.498H95.9355V76H94.8516ZM98.2031 72.7715C98.2031 72.1504 98.3242 71.5918 98.5664 71.0957C98.8125 70.5996 99.1523 70.2168 99.5859 69.9473C100.023 69.6777 100.521 69.543 101.08 69.543C101.943 69.543 102.641 69.8418 103.172 70.4395C103.707 71.0371 103.975 71.832 103.975 72.8242V72.9004C103.975 73.5176 103.855 74.0723 103.617 74.5645C103.383 75.0527 103.045 75.4336 102.604 75.707C102.166 75.9805 101.662 76.1172 101.092 76.1172C100.232 76.1172 99.5352 75.8184 99 75.2207C98.4688 74.623 98.2031 73.832 98.2031 72.8477V72.7715ZM99.293 72.9004C99.293 73.6035 99.4551 74.168 99.7793 74.5938C100.107 75.0195 100.545 75.2324 101.092 75.2324C101.643 75.2324 102.08 75.0176 102.404 74.5879C102.729 74.1543 102.891 73.5488 102.891 72.7715C102.891 72.0762 102.725 71.5137 102.393 71.084C102.064 70.6504 101.627 70.4336 101.08 70.4336C100.545 70.4336 100.113 70.6465 99.7852 71.0723C99.457 71.498 99.293 72.1074 99.293 72.9004ZM108.398 70.6328C108.234 70.6055 108.057 70.5918 107.865 70.5918C107.154 70.5918 106.672 70.8945 106.418 71.5V76H105.334V69.6602H106.389L106.406 70.3926C106.762 69.8262 107.266 69.543 107.918 69.543C108.129 69.543 108.289 69.5703 108.398 69.625V70.6328ZM60.4453 82.125V83.6602H61.6289V84.498H60.4453V88.4297C60.4453 88.6836 60.498 88.875 60.6035 89.0039C60.709 89.1289 60.8887 89.1914 61.1426 89.1914C61.2676 89.1914 61.4395 89.168 61.6582 89.1211V90C61.373 90.0781 61.0957 90.1172 60.8262 90.1172C60.3418 90.1172 59.9766 89.9707 59.7305 89.6777C59.4844 89.3848 59.3613 88.9688 59.3613 88.4297V84.498H58.207V83.6602H59.3613V82.125H60.4453ZM63.9844 84.4277C64.4648 83.8379 65.0898 83.543 65.8594 83.543C67.1992 83.543 67.875 84.2988 67.8867 85.8105V90H66.8027V85.8047C66.7988 85.3477 66.6934 85.0098 66.4863 84.791C66.2832 84.5723 65.9648 84.4629 65.5312 84.4629C65.1797 84.4629 64.8711 84.5566 64.6055 84.7441C64.3398 84.9316 64.1328 85.1777 63.9844 85.4824V90H62.9004V81H63.9844V84.4277ZM72.1406 90.1172C71.2812 90.1172 70.582 89.8359 70.043 89.2734C69.5039 88.707 69.2344 87.9512 69.2344 87.0059V86.8066C69.2344 86.1777 69.3535 85.6172 69.5918 85.125C69.834 84.6289 70.1699 84.2422 70.5996 83.9648C71.0332 83.6836 71.502 83.543 72.0059 83.543C72.8301 83.543 73.4707 83.8145 73.9277 84.3574C74.3848 84.9004 74.6133 85.6777 74.6133 86.6895V87.1406H70.3184C70.334 87.7656 70.5156 88.2715 70.8633 88.6582C71.2148 89.041 71.6602 89.2324 72.1992 89.2324C72.582 89.2324 72.9062 89.1543 73.1719 88.998C73.4375 88.8418 73.6699 88.6348 73.8691 88.377L74.5312 88.8926C74 89.709 73.2031 90.1172 72.1406 90.1172ZM72.0059 84.4336C71.5684 84.4336 71.2012 84.5938 70.9043 84.9141C70.6074 85.2305 70.4238 85.6758 70.3535 86.25H73.5293V86.168C73.498 85.6172 73.3496 85.1914 73.084 84.8906C72.8184 84.5859 72.459 84.4336 72.0059 84.4336ZM85.582 86.0098C85.582 86.8457 85.4414 87.5762 85.1602 88.2012C84.8789 88.8223 84.4805 89.2969 83.9648 89.625C83.4492 89.9531 82.8477 90.1172 82.1602 90.1172C81.4883 90.1172 80.8926 89.9531 80.373 89.625C79.8535 89.293 79.4492 88.8223 79.1602 88.2129C78.875 87.5996 78.7285 86.8906 78.7207 86.0859V85.4707C78.7207 84.6504 78.8633 83.9258 79.1484 83.2969C79.4336 82.668 79.8359 82.1875 80.3555 81.8555C80.8789 81.5195 81.4766 81.3516 82.1484 81.3516C82.832 81.3516 83.4336 81.5176 83.9531 81.8496C84.4766 82.1777 84.8789 82.6562 85.1602 83.2852C85.4414 83.9102 85.582 84.6387 85.582 85.4707V86.0098ZM84.4629 85.459C84.4629 84.4473 84.2598 83.6719 83.8535 83.1328C83.4473 82.5898 82.8789 82.3184 82.1484 82.3184C81.4375 82.3184 80.877 82.5898 80.4668 83.1328C80.0605 83.6719 79.8516 84.4219 79.8398 85.3828V86.0098C79.8398 86.9902 80.0449 87.7617 80.4551 88.3242C80.8691 88.8828 81.4375 89.1621 82.1602 89.1621C82.8867 89.1621 83.4492 88.8984 83.8477 88.3711C84.2461 87.8398 84.4512 87.0801 84.4629 86.0918V85.459ZM93 82.3945H90.2578V90H89.1387V82.3945H86.4023V81.4688H93V82.3945ZM95.3906 86.6602V90H94.2656V81.4688H97.4121C98.3457 81.4688 99.0762 81.707 99.6035 82.1836C100.135 82.6602 100.4 83.291 100.4 84.0762C100.4 84.9043 100.141 85.543 99.6211 85.9922C99.1055 86.4375 98.3652 86.6602 97.4004 86.6602H95.3906ZM95.3906 85.7402H97.4121C98.0137 85.7402 98.4746 85.5996 98.7949 85.3184C99.1152 85.0332 99.2754 84.623 99.2754 84.0879C99.2754 83.5801 99.1152 83.1738 98.7949 82.8691C98.4746 82.5645 98.0352 82.4062 97.4766 82.3945H95.3906V85.7402Z" fill="#6E7A90"/>
<defs>
<filter id="filter0_d" x="0" y="0" width="158" height="158" filterUnits="userSpaceOnUse" color-interpolation-filters="sRGB">
<feFlood flood-opacity="0" result="BackgroundImageFix"/>
<feColorMatrix in="SourceAlpha" type="matrix" values="0 0 0 0 0 0 0 0 0 0 0 0 0 0 0 0 0 0 127 0" result="hardAlpha"/>
<feOffset/>
<feGaussianBlur stdDeviation="5"/>
<feColorMatrix type="matrix" values="0 0 0 0 0.777293 0 0 0 0 1 0 0 0 0 0.973275 0 0 0 1 0"/>
<feBlend mode="normal" in2="BackgroundImageFix" result="effect1_dropShadow"/>
<feBlend mode="normal" in="SourceGraphic" in2="effect1_dropShadow" result="shape"/>
</filter>
</defs>
</svg>
